<svg xmlns="http://www.w3.org/2000/svg" id="Layer_1" data-name="Layer 1" viewBox="0 0 78.08 59.57"><defs><style>.cls-1{fill:#232d7e;}.cls-2{fill:#fff;}</style></defs><rect class="cls-1" x="0.9" width="77.14" height="42.75"/><path class="cls-2" d="M18.81,19.9h-2v7.53H15.56V19.9H13.77v-1h1.79V16.51a3.42,3.42,0,0,1,.71-2.3,2.7,2.7,0,0,1,2.19-.84l.51,0a3.84,3.84,0,0,1,.51.1l-.22,1.1-.4-.09a3,3,0,0,0-.46,0,1.77,1.77,0,0,0-.81.17,1.11,1.11,0,0,0-.49.47,1.87,1.87,0,0,0-.24.7,5.9,5.9,0,0,0-.06.86v2.2h2Z" transform="translate(-6.05 -4.67)"/><path class="cls-2" d="M19.81,19.85c0-.37,0-.7,0-1h1.18c0,.23,0,.49.06.77s0,.51,0,.69h0a3,3,0,0,1,1.1-1.21,3.31,3.31,0,0,1,2.07-.45,1.78,1.78,0,0,1,.39.07l-.16,1.19a2.74,2.74,0,0,0-.37-.07,2.92,2.92,0,0,0-.51,0,2.59,2.59,0,0,0-.95.18,2,2,0,0,0-.79.58,2.89,2.89,0,0,0-.55,1A4.57,4.57,0,0,0,21.07,23v4.39H19.83V20.74C19.83,20.51,19.82,20.21,19.81,19.85Z" transform="translate(-6.05 -4.67)"/><path class="cls-2" d="M33.1,22.89v.27a1.67,1.67,0,0,1,0,.31H26a3.28,3.28,0,0,0,.26,1.21,2.89,2.89,0,0,0,.65,1,3.26,3.26,0,0,0,1,.67,3.09,3.09,0,0,0,1.22.24,3,3,0,0,0,1.67-.45,3.21,3.21,0,0,0,1.07-1l.93.73a4.54,4.54,0,0,1-1.69,1.39,4.7,4.7,0,0,1-2,.43,4.64,4.64,0,0,1-1.76-.34,4.14,4.14,0,0,1-1.4-.95A4.57,4.57,0,0,1,25,24.94a4.81,4.81,0,0,1-.34-1.8A4.75,4.75,0,0,1,25,21.35a4.48,4.48,0,0,1,.91-1.43A4.23,4.23,0,0,1,29,18.64a4.27,4.27,0,0,1,1.77.34,3.63,3.63,0,0,1,1.28.91,4.12,4.12,0,0,1,.78,1.35A5.19,5.19,0,0,1,33.1,22.89Zm-1.26-.41a3.06,3.06,0,0,0-.77-2,2.66,2.66,0,0,0-2.06-.8,2.91,2.91,0,0,0-1.15.23,3.09,3.09,0,0,0-.93.62,3.15,3.15,0,0,0-.64.9A2.81,2.81,0,0,0,26,22.48Z" transform="translate(-6.05 -4.67)"/><path class="cls-2" d="M39.56,20.89a2.16,2.16,0,0,0-.83-.87,2.34,2.34,0,0,0-1.27-.34,3,3,0,0,0-.65.08,1.62,1.62,0,0,0-.59.23,1.37,1.37,0,0,0-.41.42,1.23,1.23,0,0,0-.15.61,1,1,0,0,0,.49.92,4.49,4.49,0,0,0,1.55.54,5.17,5.17,0,0,1,2.24.91,2,2,0,0,1,.72,1.6,2.5,2.5,0,0,1-.28,1.24,2.54,2.54,0,0,1-.74.82,3.1,3.1,0,0,1-1,.46,5.11,5.11,0,0,1-1.16.14,4.55,4.55,0,0,1-1.88-.41A3.52,3.52,0,0,1,34.07,26l1-.73a2.75,2.75,0,0,0,2.37,1.33,3.87,3.87,0,0,0,.77-.07,1.62,1.62,0,0,0,.63-.26,1.29,1.29,0,0,0,.44-.46,1.41,1.41,0,0,0,.17-.71,1.08,1.08,0,0,0-.65-1,8.48,8.48,0,0,0-1.87-.64c-.26-.06-.53-.13-.82-.22a3,3,0,0,1-.79-.41,2.16,2.16,0,0,1-.6-.67,1.9,1.9,0,0,1-.24-1A2.33,2.33,0,0,1,34.73,20a2.19,2.19,0,0,1,.68-.77,3.14,3.14,0,0,1,1-.45,4.66,4.66,0,0,1,1.13-.14,3.91,3.91,0,0,1,1.73.4,2.81,2.81,0,0,1,1.26,1.14Z" transform="translate(-6.05 -4.67)"/><path class="cls-2" d="M43.69,20.27a2.54,2.54,0,0,1,1.15-1.19,3.47,3.47,0,0,1,1.72-.44,3,3,0,0,1,2.43,1,3.82,3.82,0,0,1,.82,2.56v5.26H48.57V22.68a6.43,6.43,0,0,0-.11-1.22,2.7,2.7,0,0,0-.38-.95,1.84,1.84,0,0,0-.71-.61,2.63,2.63,0,0,0-1.12-.22,2.46,2.46,0,0,0-1,.2,2.35,2.35,0,0,0-.83.62,3,3,0,0,0-.59,1A4.73,4.73,0,0,0,43.65,23v4.4H42.41V13.59h1.24v6.68Z" transform="translate(-6.05 -4.67)"/><path class="cls-2" d="M58.08,21.26a1.74,1.74,0,0,0-.7-.53,2,2,0,0,0-.89-.21,1.88,1.88,0,0,0-.86.2,2.17,2.17,0,0,0-.66.51,2.57,2.57,0,0,0-.43.74,2.75,2.75,0,0,0,0,1.79,2.3,2.3,0,0,0,.42.75,2,2,0,0,0,1.57.68,2.61,2.61,0,0,0,.9-.17,1.75,1.75,0,0,0,.72-.51l1.66,2a4,4,0,0,1-1.46.86,6.13,6.13,0,0,1-3.91,0,4.71,4.71,0,0,1-1.62-1,4.59,4.59,0,0,1-1.09-1.53,5.45,5.45,0,0,1,0-4,4.8,4.8,0,0,1,1.09-1.53,4.89,4.89,0,0,1,1.62-1,5.94,5.94,0,0,1,2-.33,5.33,5.33,0,0,1,1,.09,7,7,0,0,1,.93.24,4.78,4.78,0,0,1,.82.39,3.38,3.38,0,0,1,.65.5Z" transform="translate(-6.05 -4.67)"/><path class="cls-2" d="M66.22,27.43V26.16h0a2.41,2.41,0,0,1-.43.59,2.47,2.47,0,0,1-.62.47,3.21,3.21,0,0,1-.78.33,3,3,0,0,1-.91.13,3.31,3.31,0,0,1-1.54-.33,2.94,2.94,0,0,1-1-.85,3.46,3.46,0,0,1-.57-1.19A5.63,5.63,0,0,1,60.14,24V18.31h3v4.94a4.23,4.23,0,0,0,.06.73,1.62,1.62,0,0,0,.21.63,1.21,1.21,0,0,0,.41.43,1.3,1.3,0,0,0,.67.15,1.36,1.36,0,0,0,1.2-.58,2.37,2.37,0,0,0,.41-1.38V18.31h3v9.12Z" transform="translate(-6.05 -4.67)"/><path class="cls-2" d="M73.94,20.54V24a1.56,1.56,0,0,0,.25,1,1.06,1.06,0,0,0,.88.32,2.56,2.56,0,0,0,.47,0,1.43,1.43,0,0,0,.41-.11l0,2.2a4.84,4.84,0,0,1-.79.19,5,5,0,0,1-1,.09,4.48,4.48,0,0,1-1.53-.23,2.48,2.48,0,0,1-1-.67,2.55,2.55,0,0,1-.53-1A5,5,0,0,1,71,24.4V20.54H69.56V18.31H71v-2.4h2.94v2.4h2.14v2.23Z" transform="translate(-6.05 -4.67)"/><path class="cls-2" d="M35.66,40.84H34.9V35h.75v.6h0a1.6,1.6,0,0,1,.55-.51,1.73,1.73,0,0,1,.83-.2,2,2,0,0,1,.79.16,1.84,1.84,0,0,1,1,1.08A2.05,2.05,0,0,1,39,37a2.14,2.14,0,0,1-.14.8,2.1,2.1,0,0,1-.38.65,1.78,1.78,0,0,1-.61.43A1.87,1.87,0,0,1,37,39a1.72,1.72,0,0,1-.78-.18,1.46,1.46,0,0,1-.57-.5h0ZM38.19,37a1.53,1.53,0,0,0-.08-.52,1.21,1.21,0,0,0-.64-.76,1.4,1.4,0,0,0-.56-.11,1.32,1.32,0,0,0-.53.11A1.27,1.27,0,0,0,36,36a1.43,1.43,0,0,0-.26.45,1.56,1.56,0,0,0-.1.53,1.61,1.61,0,0,0,.1.53,1.5,1.5,0,0,0,.26.44,1.12,1.12,0,0,0,.41.3,1.18,1.18,0,0,0,.53.12,1.25,1.25,0,0,0,.56-.12,1.21,1.21,0,0,0,.64-.76A1.53,1.53,0,0,0,38.19,37Z" transform="translate(-6.05 -4.67)"/><path class="cls-2" d="M42.44,36.39a.78.78,0,0,0-.26-.64,1.09,1.09,0,0,0-.69-.21,1.47,1.47,0,0,0-.62.13,1.49,1.49,0,0,0-.48.32L40,35.5a2,2,0,0,1,.69-.42,2.55,2.55,0,0,1,.88-.16,2,2,0,0,1,.72.12,1.48,1.48,0,0,1,.5.32,1.47,1.47,0,0,1,.29.48,1.93,1.93,0,0,1,.1.6v1.68c0,.13,0,.27,0,.41a2.62,2.62,0,0,0,0,.35h-.69a2.51,2.51,0,0,1-.06-.55h0a1.36,1.36,0,0,1-.53.48,1.5,1.5,0,0,1-.76.17,2,2,0,0,1-.47-.06,1.32,1.32,0,0,1-.45-.2,1.07,1.07,0,0,1-.34-.36,1.12,1.12,0,0,1-.13-.57A1,1,0,0,1,40,37.1a1.57,1.57,0,0,1,.62-.39,3.53,3.53,0,0,1,.86-.18c.32,0,.64,0,1,0Zm-.19.66c-.19,0-.39,0-.59,0a2.84,2.84,0,0,0-.55.1,1,1,0,0,0-.41.22.5.5,0,0,0-.16.39.49.49,0,0,0,.07.28.47.47,0,0,0,.18.19.69.69,0,0,0,.25.1,1.33,1.33,0,0,0,.28,0,1.07,1.07,0,0,0,.83-.32,1.18,1.18,0,0,0,.29-.81v-.2Z" transform="translate(-6.05 -4.67)"/><path class="cls-2" d="M45.2,40.84h-.76V35h.75v.6h0a1.51,1.51,0,0,1,.55-.51,1.7,1.7,0,0,1,.83-.2,1.94,1.94,0,0,1,.78.16,1.78,1.78,0,0,1,.61.43,1.85,1.85,0,0,1,.39.65,2.05,2.05,0,0,1,.14.79,2.14,2.14,0,0,1-.14.8,2.1,2.1,0,0,1-.38.65,1.78,1.78,0,0,1-.61.43,1.91,1.91,0,0,1-.8.16,1.72,1.72,0,0,1-.78-.18,1.46,1.46,0,0,1-.57-.5h0ZM47.73,37a1.53,1.53,0,0,0-.08-.52,1.21,1.21,0,0,0-.64-.76,1.4,1.4,0,0,0-.56-.11,1.32,1.32,0,0,0-.53.11,1.27,1.27,0,0,0-.41.31,1.43,1.43,0,0,0-.26.45,1.35,1.35,0,0,0-.1.53,1.39,1.39,0,0,0,.1.53,1.5,1.5,0,0,0,.26.44,1.12,1.12,0,0,0,.41.3,1.18,1.18,0,0,0,.53.12,1.25,1.25,0,0,0,.56-.12,1.21,1.21,0,0,0,.64-.76A1.53,1.53,0,0,0,47.73,37Z" transform="translate(-6.05 -4.67)"/><path class="cls-2" d="M53.17,36.92v.26H50.11a1,1,0,0,0,.11.46,1.26,1.26,0,0,0,.27.37,1.14,1.14,0,0,0,.39.25,1.28,1.28,0,0,0,.48.09,1.31,1.31,0,0,0,.67-.17,1.52,1.52,0,0,0,.45-.42l.53.43a1.82,1.82,0,0,1-.72.61,2.32,2.32,0,0,1-1.74,0,1.64,1.64,0,0,1-.64-.41,2,2,0,0,1-.43-.64,2.14,2.14,0,0,1-.15-.82,2.23,2.23,0,0,1,.15-.83,1.88,1.88,0,0,1,1.05-1.07,2.17,2.17,0,0,1,1.56,0,1.51,1.51,0,0,1,.58.4,1.64,1.64,0,0,1,.37.63A2.45,2.45,0,0,1,53.17,36.92Zm-.77-.3a1.43,1.43,0,0,0-.08-.43,1.1,1.1,0,0,0-.2-.35,1.07,1.07,0,0,0-.34-.23,1.08,1.08,0,0,0-.46-.08,1.17,1.17,0,0,0-.46.08,1.37,1.37,0,0,0-.37.23,1.1,1.1,0,0,0-.26.35,1,1,0,0,0-.12.43Z" transform="translate(-6.05 -4.67)"/><path class="cls-2" d="M54.22,35.46c0-.16,0-.31,0-.43h.72a3.28,3.28,0,0,1,0,.34c0,.12,0,.23,0,.31h0a1.25,1.25,0,0,1,.47-.55,1.23,1.23,0,0,1,.7-.21.87.87,0,0,1,.3,0l0,.7a2,2,0,0,0-.35,0,1.21,1.21,0,0,0-.48.1.9.9,0,0,0-.33.28,1,1,0,0,0-.2.39,1.49,1.49,0,0,0-.07.47v2h-.76v-3C54.23,35.76,54.23,35.62,54.22,35.46Z" transform="translate(-6.05 -4.67)"/><path class="cls-2" d="M77.57,13.44h-.48v1.3h-.31v-1.3h-.49v-.27h1.28Zm2.07,1.3h-.31V13.57h0l-.45,1.17h-.21l-.45-1.17h0v1.17h-.31V13.17h.45l.43,1.11.43-1.11h.44Z" transform="translate(-6.05 -4.67)"/><path class="cls-1" d="M8.59,58.26h-1V62H7V58.26h-.9v-.53H7V56.56a1.73,1.73,0,0,1,.36-1.16A1.36,1.36,0,0,1,8.41,55h.26l.26,0-.11.55-.21,0a.79.79,0,0,0-.23,0,.86.86,0,0,0-.41.08.53.53,0,0,0-.24.23,1,1,0,0,0-.12.36,2.86,2.86,0,0,0,0,.43v1.1h1Z" transform="translate(-6.05 -4.67)"/><path class="cls-1" d="M9.47,58.23c0-.18,0-.35,0-.5H10q0,.18,0,.39c0,.14,0,.26,0,.35h0a1.49,1.49,0,0,1,.56-.61,1.46,1.46,0,0,1,.82-.24h.22l.2,0-.08.6-.19,0-.26,0a1.27,1.27,0,0,0-.47.09,1,1,0,0,0-.4.29,1.38,1.38,0,0,0-.28.51,2.26,2.26,0,0,0-.11.74V62H9.48V58.68C9.48,58.57,9.48,58.41,9.47,58.23Z" transform="translate(-6.05 -4.67)"/><path class="cls-1" d="M16.54,59.76v.14a.81.81,0,0,1,0,.15H13a1.75,1.75,0,0,0,.13.61,1.51,1.51,0,0,0,.33.49,1.43,1.43,0,0,0,.5.34,1.59,1.59,0,0,0,.62.12,1.55,1.55,0,0,0,.84-.22,1.8,1.8,0,0,0,.54-.52l.46.37a2.31,2.31,0,0,1-.85.7,2.38,2.38,0,0,1-1,.21,2.35,2.35,0,0,1-.89-.17,2,2,0,0,1-.7-.48,2.15,2.15,0,0,1-.47-.71,2.44,2.44,0,0,1-.17-.9,2.37,2.37,0,0,1,.17-.9,2.07,2.07,0,0,1,.46-.72,2.09,2.09,0,0,1,1.54-.65,2.21,2.21,0,0,1,.89.17,2,2,0,0,1,.65.46,2.08,2.08,0,0,1,.39.68A2.49,2.49,0,0,1,16.54,59.76Zm-.63-.21a1.55,1.55,0,0,0-.39-1,1.33,1.33,0,0,0-1-.4,1.58,1.58,0,0,0-.58.11,1.51,1.51,0,0,0-.47.32,1.6,1.6,0,0,0-.32.45,1.54,1.54,0,0,0-.14.52Z" transform="translate(-6.05 -4.67)"/><path class="cls-1" d="M20.17,58.75a1.12,1.12,0,0,0-.41-.43,1.18,1.18,0,0,0-.64-.17,1.84,1.84,0,0,0-.33,0,1.17,1.17,0,0,0-.3.12.73.73,0,0,0-.21.22.56.56,0,0,0-.07.3.51.51,0,0,0,.24.46,2.31,2.31,0,0,0,.79.27,2.68,2.68,0,0,1,1.12.46,1,1,0,0,1,.37.81,1.21,1.21,0,0,1-.15.62,1.32,1.32,0,0,1-.37.41,1.53,1.53,0,0,1-.52.23,2.87,2.87,0,0,1-.58.07,2.42,2.42,0,0,1-.95-.2,1.72,1.72,0,0,1-.75-.64l.49-.37a1.4,1.4,0,0,0,1.2.67,2.34,2.34,0,0,0,.38,0,1.08,1.08,0,0,0,.33-.13.67.67,0,0,0,.3-.59.54.54,0,0,0-.33-.51,4.58,4.58,0,0,0-.94-.32l-.41-.11a1.87,1.87,0,0,1-.4-.2,1.1,1.1,0,0,1-.3-.34,1,1,0,0,1-.12-.51,1.1,1.1,0,0,1,.13-.56,1.07,1.07,0,0,1,.34-.39,1.67,1.67,0,0,1,.49-.22,2.24,2.24,0,0,1,.57-.08,2,2,0,0,1,.88.21,1.35,1.35,0,0,1,.63.57Z" transform="translate(-6.05 -4.67)"/><path class="cls-1" d="M22.63,58.44a1.34,1.34,0,0,1,.58-.6,1.86,1.86,0,0,1,.86-.22,1.52,1.52,0,0,1,1.23.49,2,2,0,0,1,.41,1.29V62h-.63V59.66A2.94,2.94,0,0,0,25,59a1.33,1.33,0,0,0-.19-.47.83.83,0,0,0-.36-.31,1.36,1.36,0,0,0-1.05,0,1.2,1.2,0,0,0-.41.31,1.32,1.32,0,0,0-.3.52,2.37,2.37,0,0,0-.11.75V62H22V55.09h.62v3.35Z" transform="translate(-6.05 -4.67)"/><path class="cls-1" d="M30.18,58.85a1,1,0,0,0-.39-.31,1.21,1.21,0,0,0-.52-.13,1.19,1.19,0,0,0-.92.45,1.5,1.5,0,0,0-.22.46,1.67,1.67,0,0,0,0,1,1.35,1.35,0,0,0,.24.46,1.12,1.12,0,0,0,.39.32,1.07,1.07,0,0,0,.55.13,1.54,1.54,0,0,0,.51-.1,1,1,0,0,0,.41-.3l.69.7a1.75,1.75,0,0,1-.7.46,2.78,2.78,0,0,1-.92.16,2.84,2.84,0,0,1-.93-.16,2.18,2.18,0,0,1-.76-.46,2.26,2.26,0,0,1-.52-.73,2.57,2.57,0,0,1-.18-1,2.54,2.54,0,0,1,.18-1,2.39,2.39,0,0,1,.51-.73,2.44,2.44,0,0,1,.75-.47,2.49,2.49,0,0,1,1.86,0,1.75,1.75,0,0,1,.72.5Z" transform="translate(-6.05 -4.67)"/><path class="cls-1" d="M35.68,62h-1v-.71h0a1.52,1.52,0,0,1-1.37.84A1.55,1.55,0,0,1,32.5,62a1.52,1.52,0,0,1-.79-1,2.07,2.07,0,0,1-.1-.66V57.62h1.11v2.45c0,.13,0,.26,0,.4a1.19,1.19,0,0,0,.12.39,1,1,0,0,0,.26.28.75.75,0,0,0,.42.11,1,1,0,0,0,.78-.38,1.23,1.23,0,0,0,.19-.38,1.67,1.67,0,0,0,.06-.44V57.62h1.11Z" transform="translate(-6.05 -4.67)"/><path class="cls-1" d="M36.37,58.51v-.89h.77V56.35h1.09v1.27h1.1v.89h-1.1v2.05a1,1,0,0,0,.1.48.49.49,0,0,0,.47.2l.24,0a.7.7,0,0,0,.23-.06l0,.86a1.48,1.48,0,0,1-.35.09l-.38,0a1.8,1.8,0,0,1-.72-.12,1.18,1.18,0,0,1-.44-.34,1.26,1.26,0,0,1-.22-.5,2.91,2.91,0,0,1-.06-.6V58.51Z" transform="translate(-6.05 -4.67)"/><path class="cls-1" d="M40.92,64.24h-.63V57.73h.63v.75h0a1.63,1.63,0,0,1,.71-.64,2.14,2.14,0,0,1,.91-.22,2.24,2.24,0,0,1,.91.18,1.9,1.9,0,0,1,.7.48,2.26,2.26,0,0,1,.45.71,2.58,2.58,0,0,1,0,1.79,2.26,2.26,0,0,1-.45.71,1.9,1.9,0,0,1-.7.48,2.24,2.24,0,0,1-.91.18,2,2,0,0,1-.91-.22,1.65,1.65,0,0,1-.71-.62h0Zm3.21-4.35a2.15,2.15,0,0,0-.11-.68,1.5,1.5,0,0,0-.32-.55,1.46,1.46,0,0,0-.51-.37,1.52,1.52,0,0,0-.69-.14,1.59,1.59,0,0,0-.66.13,1.5,1.5,0,0,0-.52.37,1.67,1.67,0,0,0-.35.55,2,2,0,0,0,0,1.37,1.67,1.67,0,0,0,.35.55,1.61,1.61,0,0,0,.52.36,1.59,1.59,0,0,0,.66.13,1.67,1.67,0,0,0,.69-.13,1.46,1.46,0,0,0,.51-.37,1.5,1.5,0,0,0,.32-.55A2.14,2.14,0,0,0,44.13,59.89Z" transform="translate(-6.05 -4.67)"/><path class="cls-1" d="M48.85,59.25a1.07,1.07,0,0,0-.3-.83,1.2,1.2,0,0,0-.85-.27,1.71,1.71,0,0,0-.72.14,1.69,1.69,0,0,0-.56.36l-.35-.41a2,2,0,0,1,.7-.44,2.57,2.57,0,0,1,1-.18,2.27,2.27,0,0,1,.65.1A1.48,1.48,0,0,1,49,58a1.39,1.39,0,0,1,.36.49,1.78,1.78,0,0,1,.12.69v1.88c0,.17,0,.34,0,.52a4.14,4.14,0,0,0,.06.45H49c0-.11,0-.22-.05-.34s0-.24,0-.36h0a1.86,1.86,0,0,1-.67.62,1.93,1.93,0,0,1-.9.19,2.4,2.4,0,0,1-.51-.07,1.52,1.52,0,0,1-.48-.23,1.39,1.39,0,0,1-.36-.4,1.28,1.28,0,0,1-.14-.61,1.2,1.2,0,0,1,.25-.79,1.53,1.53,0,0,1,.68-.43,3.88,3.88,0,0,1,1-.19c.37,0,.74,0,1.14,0Zm-.19.64-.77,0a2.9,2.9,0,0,0-.71.13,1.18,1.18,0,0,0-.52.28.6.6,0,0,0-.2.49.74.74,0,0,0,.08.38.64.64,0,0,0,.24.25.92.92,0,0,0,.32.14,1.5,1.5,0,0,0,.37,0,1.41,1.41,0,0,0,.59-.11,1.35,1.35,0,0,0,.43-.31,1.61,1.61,0,0,0,.26-.46,1.4,1.4,0,0,0,.1-.54v-.32Z" transform="translate(-6.05 -4.67)"/><path class="cls-1" d="M51.67,64.24H51V57.73h.63v.75h0a1.69,1.69,0,0,1,.71-.64,2.14,2.14,0,0,1,.91-.22,2.24,2.24,0,0,1,.91.18,1.9,1.9,0,0,1,.7.48,2.26,2.26,0,0,1,.45.71,2.58,2.58,0,0,1,0,1.79,2.26,2.26,0,0,1-.45.71,1.9,1.9,0,0,1-.7.48,2.24,2.24,0,0,1-.91.18,2,2,0,0,1-.91-.22,1.71,1.71,0,0,1-.71-.62h0Zm3.21-4.35a2.15,2.15,0,0,0-.11-.68,1.5,1.5,0,0,0-.32-.55,1.46,1.46,0,0,0-.51-.37,1.52,1.52,0,0,0-.69-.14,1.59,1.59,0,0,0-.66.13,1.64,1.64,0,0,0-.53.37,1.82,1.82,0,0,0-.34.55,2,2,0,0,0,0,1.37,1.82,1.82,0,0,0,.34.55,1.77,1.77,0,0,0,.53.36,1.59,1.59,0,0,0,.66.13,1.67,1.67,0,0,0,.69-.13,1.46,1.46,0,0,0,.51-.37,1.5,1.5,0,0,0,.32-.55A2.14,2.14,0,0,0,54.88,59.89Z" transform="translate(-6.05 -4.67)"/><path class="cls-1" d="M60.8,59.76v.14a.81.81,0,0,1,0,.15H57.22a1.75,1.75,0,0,0,.13.61,1.51,1.51,0,0,0,.33.49,1.43,1.43,0,0,0,.5.34,1.59,1.59,0,0,0,.62.12,1.55,1.55,0,0,0,.84-.22,1.8,1.8,0,0,0,.54-.52l.46.37a2.31,2.31,0,0,1-.85.7,2.38,2.38,0,0,1-1,.21,2.35,2.35,0,0,1-.89-.17,2,2,0,0,1-.7-.48,2.15,2.15,0,0,1-.47-.71,2.44,2.44,0,0,1-.17-.9,2.37,2.37,0,0,1,.17-.9,2.07,2.07,0,0,1,.46-.72,2.09,2.09,0,0,1,1.54-.65,2.21,2.21,0,0,1,.89.17,2,2,0,0,1,.65.46,2.08,2.08,0,0,1,.39.68A2.49,2.49,0,0,1,60.8,59.76Zm-.63-.21a1.55,1.55,0,0,0-.39-1,1.33,1.33,0,0,0-1-.4,1.58,1.58,0,0,0-.58.11,1.51,1.51,0,0,0-.47.32,1.6,1.6,0,0,0-.32.45,1.54,1.54,0,0,0-.14.52Z" transform="translate(-6.05 -4.67)"/><path class="cls-1" d="M62.14,58.23c0-.18,0-.35,0-.5h.6c0,.12,0,.25,0,.39s0,.26,0,.35h0a1.47,1.47,0,0,1,.55-.61,1.49,1.49,0,0,1,.83-.24h.22l.19,0-.08.6-.18,0-.26,0a1.28,1.28,0,0,0-.48.09,1,1,0,0,0-.4.29,1.53,1.53,0,0,0-.27.51,2.26,2.26,0,0,0-.11.74V62h-.63V58.23Z" transform="translate(-6.05 -4.67)"/><path class="cls-1" d="M65.88,61.6a.49.49,0,0,1-.14.34.51.51,0,0,1-.72,0,.49.49,0,0,1-.14-.34.52.52,0,0,1,.14-.35.51.51,0,0,1,.72,0A.52.52,0,0,1,65.88,61.6Z" transform="translate(-6.05 -4.67)"/><path class="cls-1" d="M70.5,58.72a1.13,1.13,0,0,0-.45-.41,1.33,1.33,0,0,0-.65-.16,1.65,1.65,0,0,0-.68.13,1.5,1.5,0,0,0-.52.37,1.79,1.79,0,0,0-.33.55,2,2,0,0,0,0,1.37,1.48,1.48,0,0,0,.33.54,1.46,1.46,0,0,0,.51.37,1.65,1.65,0,0,0,.68.13,1.48,1.48,0,0,0,.7-.15,1.44,1.44,0,0,0,.47-.41l.47.35a2.14,2.14,0,0,1-.68.55,2.19,2.19,0,0,1-1,.2,2.59,2.59,0,0,1-1-.17,2.11,2.11,0,0,1-1.18-1.19,2.44,2.44,0,0,1-.17-.9,2.37,2.37,0,0,1,.17-.9,2.07,2.07,0,0,1,.46-.72,2.27,2.27,0,0,1,.72-.48,2.59,2.59,0,0,1,1-.17,2.37,2.37,0,0,1,.88.19,1.68,1.68,0,0,1,.72.56Z" transform="translate(-6.05 -4.67)"/><path class="cls-1" d="M76.28,59.89a2.44,2.44,0,0,1-.17.9,2.31,2.31,0,0,1-.47.71,2.26,2.26,0,0,1-.73.48,2.6,2.6,0,0,1-1.85,0,2.26,2.26,0,0,1-.73-.48,2.15,2.15,0,0,1-.47-.71,2.44,2.44,0,0,1-.17-.9,2.37,2.37,0,0,1,.17-.9,2.09,2.09,0,0,1,.47-.72,2.44,2.44,0,0,1,.73-.48,2.6,2.6,0,0,1,1.85,0,2.44,2.44,0,0,1,.73.48,2.25,2.25,0,0,1,.47.72A2.37,2.37,0,0,1,76.28,59.89Zm-.66,0a1.91,1.91,0,0,0-.12-.68,1.66,1.66,0,0,0-.32-.55,1.59,1.59,0,0,0-.52-.37,1.72,1.72,0,0,0-1.36,0,1.46,1.46,0,0,0-.51.37,1.5,1.5,0,0,0-.32.55,2,2,0,0,0,0,1.35,1.5,1.5,0,0,0,.32.55,1.46,1.46,0,0,0,.51.37,1.84,1.84,0,0,0,1.36,0,1.59,1.59,0,0,0,.52-.37,1.66,1.66,0,0,0,.32-.55A1.89,1.89,0,0,0,75.62,59.89Z" transform="translate(-6.05 -4.67)"/><path class="cls-1" d="M78.8,57.86a1.58,1.58,0,0,1,.85-.24,2.46,2.46,0,0,1,.37,0,1.4,1.4,0,0,1,.37.14,2,2,0,0,1,.33.28,1.9,1.9,0,0,1,.26.45,1.64,1.64,0,0,1,.6-.67,1.67,1.67,0,0,1,.91-.24,1.52,1.52,0,0,1,1.22.49,1.9,1.9,0,0,1,.41,1.29V62H83.5V59.66a2.08,2.08,0,0,0-.26-1.1.92.92,0,0,0-.85-.41,1.06,1.06,0,0,0-.58.14,1.09,1.09,0,0,0-.38.36,1.65,1.65,0,0,0-.2.51,2.32,2.32,0,0,0-.07.59V62h-.62V59.53a3.27,3.27,0,0,0-.05-.57,1.15,1.15,0,0,0-.16-.44.8.8,0,0,0-.32-.28,1.23,1.23,0,0,0-.51-.09,1,1,0,0,0-.45.1,1.17,1.17,0,0,0-.4.31,1.44,1.44,0,0,0-.29.52,2.12,2.12,0,0,0-.11.75V62h-.63V58.68c0-.11,0-.27,0-.45a3.84,3.84,0,0,0,0-.5h.6q0,.18,0,.39c0,.14,0,.26,0,.35h0A1.43,1.43,0,0,1,78.8,57.86Z" transform="translate(-6.05 -4.67)"/></svg>